<svg width="21" height="14" viewBox="0 0 21 14" fill="none" xmlns="http://www.w3.org/2000/svg">
<path d="M5.33314 13.9999C4.60992 13.9995 3.89539 13.8422 3.23885 13.5389C2.58231 13.2355 1.99939 12.7934 1.53031 12.2429C1.06122 11.6925 0.717135 11.0468 0.521787 10.3504C0.326439 9.65411 0.284478 8.92367 0.398801 8.20954C0.513123 7.49541 0.781007 6.81458 1.18397 6.21402C1.58694 5.61346 2.11539 5.10747 2.73287 4.73095C3.35035 4.35443 4.04217 4.11634 4.76059 4.03312C5.47901 3.9499 6.20693 4.02352 6.89414 4.24891C7.52871 2.76654 8.65546 1.54862 10.0841 0.800854C11.5127 0.0530931 13.1556 -0.178674 14.7354 0.1447C16.3151 0.468073 17.7348 1.32677 18.7547 2.57574C19.7745 3.82472 20.3321 5.38743 20.3331 6.99991C20.3331 8.85642 19.5956 10.6369 18.2829 11.9497C16.9701 13.2624 15.1897 13.9999 13.3331 13.9999H5.33314ZM5.33314 11.9999H13.3331C14.2361 11.9995 15.1221 11.7546 15.8971 11.2911C16.672 10.8277 17.307 10.163 17.7346 9.3677C18.1623 8.5724 18.3665 7.67614 18.3257 6.77409C18.2849 5.87205 18.0007 4.99788 17.503 4.24441C17.0054 3.49093 16.313 2.88628 15.4994 2.49465C14.6858 2.10302 13.7813 1.93904 12.882 2.0201C11.9826 2.10116 11.1221 2.42425 10.3916 2.95506C9.6611 3.48588 9.08801 4.20459 8.73314 5.03491L8.01314 6.72091L6.27114 6.14891C5.85891 6.01391 5.42231 5.9699 4.99144 6.01993C4.56057 6.06996 4.14567 6.21283 3.77534 6.4387C3.40501 6.66456 3.08807 6.96805 2.84637 7.32823C2.60466 7.68842 2.44393 8.09673 2.37527 8.52503C2.30661 8.95333 2.33164 9.39143 2.44864 9.80912C2.56565 10.2268 2.77184 10.6142 3.053 10.9445C3.33416 11.2748 3.68361 11.5402 4.07725 11.7224C4.4709 11.9046 4.89937 11.9993 5.33314 11.9999Z" fill="#475569"/>
</svg>
