<svg width="25" height="24" viewBox="0 0 25 24" fill="none" xmlns="http://www.w3.org/2000/svg">
<path d="M22.6667 10.163C22.3407 10.3463 22.0694 10.613 21.8807 10.9359C21.6919 11.2587 21.5925 11.626 21.5927 12C21.5927 12.789 22.0257 13.476 22.6667 13.837L21.9497 16.243C21.5622 16.1763 21.1637 16.2196 20.7995 16.3678C20.4352 16.516 20.1198 16.7633 19.8889 17.0816C19.658 17.3999 19.5209 17.7766 19.4931 18.1688C19.4654 18.5611 19.548 18.9533 19.7317 19.301L17.6697 20.903C17.3968 20.6792 17.0718 20.5277 16.7249 20.4624C16.378 20.3971 16.0203 20.4202 15.6846 20.5295C15.3489 20.6387 15.0462 20.8307 14.8042 21.0877C14.5622 21.3447 14.3887 21.6584 14.2997 22L11.0097 21.992C10.9198 21.652 10.7461 21.34 10.5045 21.0845C10.2629 20.829 9.96114 20.6381 9.62674 20.5292C9.29233 20.4204 8.93599 20.3972 8.59028 20.4616C8.24457 20.526 7.92052 20.676 7.64775 20.898L5.58775 19.283C5.76632 18.9367 5.8453 18.5477 5.81589 18.1592C5.78648 17.7708 5.64984 17.3981 5.42117 17.0826C5.19251 16.7672 4.88079 16.5214 4.52073 16.3727C4.16066 16.2239 3.76637 16.178 3.38175 16.24L2.66675 13.825C2.9867 13.6398 3.25226 13.3737 3.43675 13.0533C3.62124 12.733 3.71815 12.3697 3.71775 12C3.71775 11.22 3.29675 10.54 2.66675 10.175L3.38175 7.76C3.76645 7.82225 4.16087 7.77648 4.5211 7.6278C4.88132 7.47912 5.1932 7.23336 5.422 6.9179C5.6508 6.60243 5.78753 6.22964 5.81697 5.84106C5.84641 5.45247 5.7674 5.06334 5.58875 4.717L7.64675 3.102C7.91952 3.32395 8.24357 3.47399 8.58928 3.53841C8.93499 3.60283 9.29133 3.57957 9.62574 3.47075C9.96014 3.36194 10.2619 3.17104 10.5035 2.91551C10.7451 2.65998 10.9188 2.34797 11.0087 2.008L14.3007 2C14.3897 2.34161 14.5632 2.65535 14.8052 2.91233C15.0472 3.16931 15.3499 3.36127 15.6856 3.47053C16.0213 3.5798 16.379 3.60285 16.7259 3.53758C17.0728 3.4723 17.3978 3.32079 17.6707 3.097L19.7307 4.7C19.547 5.04769 19.4644 5.43989 19.4921 5.83215C19.5199 6.22442 19.657 6.60106 19.8879 6.91938C20.1188 7.23771 20.4342 7.485 20.7985 7.63322C21.1627 7.78144 21.5612 7.82467 21.9487 7.758L22.6667 10.162V10.163ZM17.4897 5.68C17.4897 5.617 17.4917 5.555 17.4947 5.492L17.4147 5.43C16.6358 5.64219 15.8116 5.61989 15.0453 5.36588C14.279 5.11187 13.6047 4.63744 13.1067 4.002L12.2027 4.004C11.7067 4.63674 11.0355 5.10966 10.2727 5.36392C9.50995 5.61817 8.68926 5.64255 7.91275 5.434L7.81775 5.51C7.85541 6.41268 7.59444 7.30259 7.07524 8.04197C6.55605 8.78135 5.80759 9.32895 4.94575 9.6C5.44856 10.2988 5.71866 11.1381 5.71775 11.999C5.71775 12.881 5.43775 13.714 4.94575 14.399C5.80759 14.67 6.55605 15.2176 7.07524 15.957C7.59444 16.6964 7.85541 17.5863 7.81775 18.489L7.91375 18.564C8.69014 18.3562 9.51046 18.3809 10.2729 18.6351C11.0354 18.8894 11.7064 19.3619 12.2027 19.994L13.1067 19.996C13.6044 19.3604 14.2785 18.8859 15.0447 18.6319C15.8109 18.3778 16.635 18.3556 17.4137 18.568L17.4937 18.506C17.4526 17.6005 17.712 16.7068 18.2316 15.9642C18.7513 15.2215 19.502 14.6716 20.3667 14.4C19.8635 13.701 19.5931 12.8613 19.5937 12C19.5937 11.118 19.8747 10.284 20.3667 9.6C19.5327 9.33781 18.8041 8.81638 18.2869 8.11155C17.7696 7.40672 17.4907 6.55526 17.4907 5.681L17.4897 5.68ZM12.6667 16C11.6059 16 10.5885 15.5786 9.83832 14.8284C9.08818 14.0783 8.66675 13.0609 8.66675 12C8.66675 10.9391 9.08818 9.92172 9.83832 9.17157C10.5885 8.42143 11.6059 8 12.6667 8C13.7276 8 14.745 8.42143 15.4952 9.17157C16.2453 9.92172 16.6667 10.9391 16.6667 12C16.6667 13.0609 16.2453 14.0783 15.4952 14.8284C14.745 15.5786 13.7276 16 12.6667 16ZM12.6667 14C13.1972 14 13.7059 13.7893 14.081 13.4142C14.456 13.0391 14.6667 12.5304 14.6667 12C14.6667 11.4696 14.456 10.9609 14.081 10.5858C13.7059 10.2107 13.1972 10 12.6667 10C12.1363 10 11.6276 10.2107 11.2525 10.5858C10.8775 10.9609 10.6667 11.4696 10.6667 12C10.6667 12.5304 10.8775 13.0391 11.2525 13.4142C11.6276 13.7893 12.1363 14 12.6667 14Z" fill="#475569"/>
</svg>
