<svg width="25" height="24" viewBox="0 0 25 24" fill="none" xmlns="http://www.w3.org/2000/svg">
<path d="M4.33325 18.59C4.33325 18.8552 4.2279 19.1096 4.04036 19.2971C3.85282 19.4846 3.59847 19.59 3.33325 19.59C3.06804 19.59 2.81368 19.4846 2.62615 19.2971C2.43861 19.1096 2.33325 18.8552 2.33325 18.59V12.5C2.33325 6.977 6.81025 2.5 12.3333 2.5C17.8563 2.5 22.3333 6.977 22.3333 12.5V15.586C22.3333 15.8512 22.2279 16.1056 22.0404 16.2931C21.8528 16.4806 21.5985 16.586 21.3333 16.586C21.068 16.586 20.8137 16.4806 20.6261 16.2931C20.4386 16.1056 20.3333 15.8512 20.3333 15.586V12.5C20.3333 10.3783 19.4904 8.34344 17.9901 6.84315C16.4898 5.34285 14.455 4.5 12.3333 4.5C10.2115 4.5 8.17669 5.34285 6.6764 6.84315C5.17611 8.34344 4.33325 10.3783 4.33325 12.5V18.59ZM4.33325 12.5H6.33325C6.86369 12.5 7.37239 12.7107 7.74747 13.0858C8.12254 13.4609 8.33325 13.9696 8.33325 14.5V19.5C8.33325 20.0304 8.12254 20.5391 7.74747 20.9142C7.37239 21.2893 6.86369 21.5 6.33325 21.5H4.33325C3.80282 21.5 3.29411 21.2893 2.91904 20.9142C2.54397 20.5391 2.33325 20.0304 2.33325 19.5V14.5C2.33325 13.9696 2.54397 13.4609 2.91904 13.0858C3.29411 12.7107 3.80282 12.5 4.33325 12.5ZM4.33325 14.5V19.5H6.33325V14.5H4.33325ZM18.3333 12.5H20.3333C20.8637 12.5 21.3724 12.7107 21.7475 13.0858C22.1225 13.4609 22.3333 13.9696 22.3333 14.5V19.5C22.3333 20.0304 22.1225 20.5391 21.7475 20.9142C21.3724 21.2893 20.8637 21.5 20.3333 21.5H18.3333C17.8028 21.5 17.2941 21.2893 16.919 20.9142C16.544 20.5391 16.3333 20.0304 16.3333 19.5V14.5C16.3333 13.9696 16.544 13.4609 16.919 13.0858C17.2941 12.7107 17.8028 12.5 18.3333 12.5ZM18.3333 14.5V19.5H20.3333V14.5H18.3333Z" fill="#475569"/>
</svg>
