<svg width="14" height="10" viewBox="0 0 14 10" fill="none" xmlns="http://www.w3.org/2000/svg">
<path d="M5.48599 9.22999C5.35472 9.23025 5.2247 9.2046 5.10337 9.15449C4.98204 9.10438 4.87181 9.0308 4.77899 8.93799L0.536988 4.69499C0.441415 4.60281 0.365157 4.49252 0.312663 4.37055C0.26017 4.24858 0.232492 4.11738 0.231245 3.98461C0.229999 3.85183 0.255208 3.72013 0.305401 3.5972C0.355595 3.47427 0.429769 3.36257 0.523594 3.26861C0.61742 3.17465 0.729018 3.10032 0.851878 3.04995C0.974737 2.99958 1.1064 2.97419 1.23918 2.97525C1.37196 2.97631 1.50319 3.0038 1.62523 3.05612C1.74727 3.10844 1.85767 3.18454 1.94999 3.27999L5.48499 6.81499L11.85 0.451986C12.0375 0.264345 12.2919 0.158877 12.5571 0.158783C12.8224 0.158689 13.0768 0.263978 13.2645 0.451486C13.4521 0.638994 13.5576 0.893362 13.5577 1.15863C13.5578 1.4239 13.4525 1.67834 13.265 1.86599L6.19299 8.93799C6.10017 9.0308 5.98993 9.10438 5.86861 9.15449C5.74728 9.2046 5.61725 9.23025 5.48599 9.22999Z" fill="white"/>
</svg>
